# xmcd
#
# Track frame offsets: 
#        150
#        12436
#        25620
#        38659
#        48045
#        59135
#        69668
#        77979
#        87706
#        96273
#        107323
#        119219
#        128537
#        139836
#        150259
#        160543
#        170552
#        184714
#        194644
#        205912
#        217647
#        225967
#        235280
#        245352
#        255978
#        264984
#        275722
#
# Disc length: 3875 seconds
#
# Revision: 3
# Processed by: cddbd v1.5.2PL0 Copyright (c) Steve Scherf et al.
# Submitted via: ExactAudioCopyFreeDBPlugin 1.0
#
DISCID=6c0f211b
DTITLE=Various Artist - Christmas on the Country Side:  27 Honky Tonk
DTITLE=in' Christmas Country Songs [Bear Family]
DYEAR=2017
DGENRE=Holiday
TTITLE0=Red Foley - Here Comes Santa Claus
TTITLE1=Eddy Arnold - White Christmas
TTITLE2=Tennessee Ernie Ford - Christmas Dinner
TTITLE3=Johnny Cash - It Was Jesus (undubbed version)
TTITLE4=Hank Thomson - Blue Christmas (radio transcription)
TTITLE5=Hank Thomson - It's Christmas Every Day in Alaska
TTITLE6=Eddie Cletro - Santa Claus, Jr. (ft Diana Cletro)
TTITLE7=Johnny Horton - They Shined Up Rudolph's Nose
TTITLE8=Carl Smith - Snowdeer
TTITLE9=Frankie Lane and Jo Stafford - Christmas Roses
TTITLE10=Sonny James - Christmas in My Hometown
TTITLE11=The Louvin Brothers - Santas's Big Parade
TTITLE12=Bobby Helms - Captain Santa Claus
TTITLE13=Hank Snow - Reindeer Boogie
TTITLE14=Eddy Arnold - Santa Claus is Coming to Town
TTITLE15=Marty Robbins - Footprints in the Snow
TTITLE16=Gene Autry and The Pinafores - Rudolph, The Red-Nosed Reindeer
TTITLE17=The Davis Sisters - The Christmas Boogie
TTITLE18=Red Foley - Frosty the Snowman
TTITLE19=Johnny Cash - The Little Drummer Boy
TTITLE20=Tennessee Ernie Ford - A Rootin' Tootin' Santa Claus
TTITLE21=Eddy Arnold - I'm Your Private Santa Claus
TTITLE22=Faron Young - I'm Gonna Tell Santa Claus on You
TTITLE23=Jim Reeves - Señor Santa Claus
TTITLE24=Homer and Jethro - Randolph, The Flat-Nosed Reindeer
TTITLE25=Ernest Tubb - I'll Be Walking the Floor This Christmas
TTITLE26=Hank Snow - Silent Night
EXTD=Bear Family
EXTT0=
EXTT1=
EXTT2=
EXTT3=
EXTT4=
EXTT5=
EXTT6=
EXTT7=
EXTT8=
EXTT9=
EXTT10=
EXTT11=
EXTT12=
EXTT13=
EXTT14=
EXTT15=
EXTT16=
EXTT17=
EXTT18=
EXTT19=
EXTT20=
EXTT21=
EXTT22=
EXTT23=
EXTT24=
EXTT25=
EXTT26=
PLAYORDER=
